<?xml version="1.0" encoding="UTF-8" standalone="no"?>
<svg
   height="448.00027"
   id="Layer_1"
   version="1.1"
   viewBox="0 0 447.99999 448.00027"
   width="448"
   xml:space="preserve"
   sodipodi:docname="PictureIcon.svg"
   inkscape:version="1.3.2 (091e20e, 2023-11-25, custom)"
   inkscape:export-filename="..\Documents\GoogleImageNamer\BellingcatFilenameFinder\icons\PictureIcon128.png"
   inkscape:export-xdpi="27.428572"
   inkscape:export-ydpi="27.428572"
   xmlns:inkscape="http://www.inkscape.org/namespaces/inkscape"
   xmlns:sodipodi="http://sodipodi.sourceforge.net/DTD/sodipodi-0.dtd"
   xmlns="http://www.w3.org/2000/svg"
   xmlns:svg="http://www.w3.org/2000/svg"><defs
     id="defs2"><inkscape:path-effect
       effect="fill_between_many"
       method="originald"
       linkedpaths="#path2-4,0,1"
       id="path-effect3"
       is_visible="true"
       lpeversion="0"
       join="true"
       close="true"
       autoreverse="true" /></defs><sodipodi:namedview
     id="namedview2"
     pagecolor="#ffffff"
     bordercolor="#000000"
     borderopacity="0.25"
     inkscape:showpageshadow="2"
     inkscape:pageopacity="0.0"
     inkscape:pagecheckerboard="0"
     inkscape:deskcolor="#d1d1d1"
     inkscape:zoom="0.79394531"
     inkscape:cx="16.373924"
     inkscape:cy="296.61993"
     inkscape:window-width="1920"
     inkscape:window-height="1009"
     inkscape:window-x="1912"
     inkscape:window-y="-8"
     inkscape:window-maximized="1"
     inkscape:current-layer="Layer_1" /><path
     id="rect2"
     style="fill:#fbb400;stroke-width:7.55906;paint-order:markers stroke fill"
     d="M 15.86224,17.869904 H 433.3973 V 366.13067 H 15.86224 Z" /><path
     d="m 336,187.71 c 26.5,0 48,-21.5 48,-48 0,-26.5 -21.5,-48 -48,-48 -26.5,0 -48,21.5 -48,48 0,26.5 21.5,48 48,48 z"
     id="path1"
     style="fill:#000000;fill-opacity:1" /><path
     d="M 420,2.83e-4 H 28 C 12.4,2.83e-4 0,14.81695 0,33.01695 v 381.96666 c 0,18.2 12.4,33.01667 28,33.01667 h 392 c 15.6,0 28,-14.81667 28,-33.01667 V 33.01695 C 448,14.81695 435.6,2.83e-4 420,2.83e-4 Z M 316.9,230.65028 c -3,-4.08333 -7.6,-7.23333 -12.8,-7.23333 -5.1,0 -8.7,2.8 -12.8,6.65 l -18.7,18.43333 c -3.9,3.26667 -7,5.48333 -11.5,5.48333 -4.3,0 -8.2,-1.86666 -11,-4.78333 -1,-1.05 -2.8,-3.03333 -4.3,-4.78333 l -53.8,-67.9 c -4,-5.36667 -10,-8.75 -16.7,-8.75 -6.7,0 -12.9,3.85 -16.8,9.1 L 32,354.90028 V 50.983613 c 1,-7.93333 6.3,-13.65 13.1,-13.65 h 357.7 c 6.9,0 12.5,5.95 12.9,14 L 416,355.13361 Z"
     id="path2"
     style="fill:#000000;fill-opacity:1;stroke-width:1.08012" /><path
     d="m 158.57319,-114.64207 h -392 c -15.6,0 -28,14.816674 -28,33.016674 V 300.34126 c 0,18.2 12.4,33.01667 28,33.01667 h 392 c 15.6,0 28,-14.81667 28,-33.01667 V -81.625396 c 0,-18.2 -12.4,-33.016674 -28,-33.016674 z m -103.100004,230.65 c -3,-4.08333 -7.6,-7.23333 -12.8,-7.23333 -5.1,0 -8.7,2.8 -12.8,6.65 l -18.7,18.43333 c -3.9000003,3.26667 -7.0000003,5.48333 -11.50000027,5.48333 -4.30000003,0 -8.20000003,-1.86666 -10.99999973,-4.78333 -1,-1.05 -2.8,-3.03333 -4.3,-4.78333 l -53.8,-67.899996 c -4,-5.36667 -10,-8.75 -16.7,-8.75 -6.7,0 -12.9,3.85 -16.799996,9.1 l -126.5,178.033326 V -63.658736 c 1,-7.93333 6.3,-13.65 13.1,-13.65 h 357.7 c 6.9,0 12.5,5.95 12.9,14 l 0.3,303.799996 z"
     id="path2-4"
     style="fill:#000000;fill-opacity:1;stroke-width:1.08012"
     transform="translate(261.42681,114.64207)" /></svg>
